<?xml version="1.0"?> <svg xmlns="http://www.w3.org/2000/svg" xmlns:xlink="http://www.w3.org/1999/xlink" width="40" zoomAndPan="magnify" viewBox="0 0 30 30.000001" height="40" preserveAspectRatio="xMidYMid meet" version="1.0"><defs><filter x="0%" y="0%" width="100%" height="100%" id="2894b427d1"><feColorMatrix values="0 0 0 0 1 0 0 0 0 1 0 0 0 0 1 0 0 0 1 0" color-interpolation-filters="sRGB"></feColorMatrix></filter><filter x="0%" y="0%" width="100%" height="100%" id="bfc97f8227"><feColorMatrix values="0 0 0 0 1 0 0 0 0 1 0 0 0 0 1 0.2126 0.7152 0.0722 0 0" color-interpolation-filters="sRGB"></feColorMatrix></filter><clipPath id="9db0b3c789"><path d="M 0.484375 0.289062 L 29.226562 0.289062 L 29.226562 29.03125 L 0.484375 29.03125 Z M 0.484375 0.289062 " clip-rule="nonzero"></path></clipPath><clipPath id="33a2798c47"><path d="M 14.855469 0.289062 C 6.917969 0.289062 0.484375 6.722656 0.484375 14.660156 C 0.484375 22.597656 6.917969 29.03125 14.855469 29.03125 C 22.792969 29.03125 29.226562 22.597656 29.226562 14.660156 C 29.226562 6.722656 22.792969 0.289062 14.855469 0.289062 Z M 14.855469 0.289062 " clip-rule="nonzero"></path></clipPath><clipPath id="374ea33a3d"><path d="M 0.484375 0.289062 L 29.226562 0.289062 L 29.226562 29.03125 L 0.484375 29.03125 Z M 0.484375 0.289062 " clip-rule="nonzero"></path></clipPath><clipPath id="646af05662"><path d="M 14.855469 0.289062 C 6.917969 0.289062 0.484375 6.722656 0.484375 14.660156 C 0.484375 22.597656 6.917969 29.03125 14.855469 29.03125 C 22.792969 29.03125 29.226562 22.597656 29.226562 14.660156 C 29.226562 6.722656 22.792969 0.289062 14.855469 0.289062 Z M 14.855469 0.289062 " clip-rule="nonzero"></path></clipPath><clipPath id="784c07eafe"><rect x="0" width="30" y="0" height="30"></rect></clipPath><mask id="f8a0de44d7"><g filter="url(#2894b427d1)"><g filter="url(#bfc97f8227)" transform="matrix(0.078125, 0, 0, 0.0768501, 3.756502, 4.724851)"><image x="0" y="0" width="288" height="255" preserveAspectRatio="xMidYMid meet"></image></g></g></mask></defs><g clip-path="url(#9db0b3c789)"><g clip-path="url(#33a2798c47)"><g transform="matrix(1, 0, 0, 1, 0, 0.00000000000000569)"><g clip-path="url(#784c07eafe)"><g clip-path="url(#374ea33a3d)"><g clip-path="url(#646af05662)"><path fill="#ffffff" d="M 0.484375 0.289062 L 29.226562 0.289062 L 29.226562 29.03125 L 0.484375 29.03125 Z M 0.484375 0.289062 " fill-opacity="1" fill-rule="nonzero"></path></g></g></g></g></g></g><g mask="url(#f8a0de44d7)"><g transform="matrix(0.078125, 0, 0, 0.0768501, 3.756502, 4.724851)"><image x="0" y="0" width="288" height="255" preserveAspectRatio="xMidYMid meet"></image></g></g></svg>